HIERARCHY
ROOT RootJoint
{
    OFFSET   0.000000   0.000000   0.000000
    CHANNELS 6 Xposition Yposition Zposition Xrotation Yrotation Zrotation
    JOINT pelvis_lowerback
    {
        OFFSET   0.000000   0.093605   0.000000
        CHANNELS 3 Xrotation Yrotation Zrotation
        JOINT lowerback_torso
        {
            OFFSET   0.000000   0.100000   0.000000
            CHANNELS 3 Xrotation Yrotation Zrotation
            JOINT torso_head
            {
                OFFSET   0.000000   0.282350   0.000000
                CHANNELS 3 Xrotation Yrotation Zrotation
                End Site
                {
                    OFFSET   0.000000   0.192650   0.000000
                }
            }
            JOINT rTorso_Clavicle
            {
                OFFSET  -0.001000   0.157500   0.000000
                CHANNELS 3 Xrotation Yrotation Zrotation
                JOINT rShoulder
                {
                    OFFSET  -0.117647   0.000000   0.000000
                    CHANNELS 3 Xrotation Yrotation Zrotation
                    JOINT rElbow
                    {
                        OFFSET  -0.245000   0.000000   0.000000
                        CHANNELS 3 Xrotation Yrotation Zrotation
                        JOINT rWrist
                        {
                            OFFSET  -0.240000   0.000000   0.000000
                            CHANNELS 3 Xrotation Yrotation Zrotation
                            End Site
                            {
                                OFFSET  -0.116353  -0.002500   0.000000
                            }
                        }
                    }
                }
            }
            JOINT lTorso_Clavicle
            {
                OFFSET   0.001000   0.157500   0.000000
                CHANNELS 3 Xrotation Yrotation Zrotation
                JOINT lShoulder
                {
                    OFFSET   0.117647   0.000000   0.000000
                    CHANNELS 3 Xrotation Yrotation Zrotation
                    JOINT lElbow
                    {
                        OFFSET   0.245000   0.000000   0.000000
                        CHANNELS 3 Xrotation Yrotation Zrotation
                        JOINT lWrist
                        {
                            OFFSET   0.240000   0.000000   0.000000
                            CHANNELS 3 Xrotation Yrotation Zrotation
                            End Site
                            {
                                OFFSET   0.116353  -0.002500   0.000000
                            }
                        }
                    }
                }
            }
        }
    }
    JOINT rHip
    {
        OFFSET  -0.100000  -0.051395   0.000000
        CHANNELS 3 Xrotation Yrotation Zrotation
        JOINT rKnee
        {
            OFFSET   0.000000  -0.410000   0.000000
            CHANNELS 3 Xrotation Yrotation Zrotation
            JOINT rAnkle
            {
                OFFSET   0.000000  -0.390000   0.000000
                CHANNELS 3 Xrotation Yrotation Zrotation
                JOINT rToeJoint
                {
                    OFFSET   0.000000  -0.050000   0.130000
                    CHANNELS 3 Xrotation Yrotation Zrotation
                    End Site
                    {
                        OFFSET  -0.010000   0.002000   0.060000
                    }
                }
            }
        }
    }
    JOINT lHip
    {
        OFFSET   0.100000  -0.051395   0.000000
        CHANNELS 3 Xrotation Yrotation Zrotation
        JOINT lKnee
        {
            OFFSET   0.000000  -0.410000   0.000000
            CHANNELS 3 Xrotation Yrotation Zrotation
            JOINT lAnkle
            {
                OFFSET   0.000000  -0.390000   0.000000
                CHANNELS 3 Xrotation Yrotation Zrotation
                JOINT lToeJoint
                {
                    OFFSET   0.000000  -0.050000   0.130000
                    CHANNELS 3 Xrotation Yrotation Zrotation
                    End Site
                    {
                        OFFSET   0.010000   0.002000   0.060000
                    }
                }
            }
        }
    }
}
MOTION
Frames: 5
Frame Time:   0.008333
 -2.686570   0.913490   4.564856  -1.784713 -43.096804  -2.466052  17.094056   1.473122  -9.850193  10.462232  -1.110160  -5.123338   2.681171  -0.152135  -1.364604   1.717712  13.356518  13.053890   8.194915  12.970805  39.446224   0.000663  19.871525  -0.002051   9.700525   2.230357  -3.667790   0.893753 -12.698869 -12.979926   2.644515  -6.152546 -27.741807   0.000169 -14.854841  -0.002415   4.736420  -1.314471   9.767880  -3.222841   1.068312   4.250290  13.785566   0.000099   0.000991  -8.405490   4.326715  -3.819270  -0.703788   0.000195   0.000091 -11.554146  -2.237169   2.184659  17.074641  -0.000662   0.004822  -3.085688   6.531142   0.409728  -2.473851  -0.000174  -0.000494
 -2.687246   0.913526   4.566969  -1.620638 -43.464221  -2.621316  17.127163   1.362319  -9.887467  10.373664  -1.186413  -5.095563   2.627345  -0.033236  -1.379701   1.621591  13.272010  12.949881   8.110470  12.903277  39.463822   0.000806  19.731993  -0.002358   9.625562   2.249880  -3.526695   0.793780 -12.838096 -12.808908   2.659259  -6.172126 -27.716936   0.000084 -14.681461  -0.002839   4.708771  -1.391781   9.711834  -3.207304   0.921098   4.463788  13.708996   0.000111   0.001131  -8.168459   4.395639  -3.571143  -1.224080   0.001241   0.002003 -11.387715  -2.013105   2.450793  16.962026  -0.000589   0.003962  -3.753419   6.807048   0.314284  -2.191623   0.000356   0.000055
 -2.687830   0.914005   4.568990  -1.540525 -43.891354  -2.735170  17.219020   1.271795 -10.013403  10.335937  -1.250082  -5.114404   2.586136   0.078969  -1.398873   1.518183  13.207959  12.863492   8.021645  12.850070  39.482207   0.000858  19.604118  -0.002471   9.550006   2.263235  -3.399805   0.699119 -12.973140 -12.636833   2.673330  -6.189768 -27.682710  -0.000030 -14.516407  -0.003166   4.681287  -1.451693   9.653908  -3.152299   0.796308   4.605575  13.674163   0.000113   0.001070  -7.793830   4.471052  -3.376629  -1.925978   0.002327   0.004396 -11.310390  -1.831761   2.620447  17.060272  -0.000449   0.002979  -4.015789   7.027781   0.253212  -2.033510   0.000423   0.000048
 -2.688441   0.914510   4.571052  -1.485348 -44.367619  -2.887028  17.284575   1.208819 -10.102727  10.311147  -1.296139  -5.142739   2.556488   0.184354  -1.421583   1.429992  13.137451  12.761453   7.945358  12.793396  39.492692   0.000889  19.483697  -0.002541   9.479158   2.276886  -3.270444   0.626679 -13.079273 -12.485460   2.694804  -6.193978 -27.666297  -0.000133 -14.359138  -0.003375   4.653510  -1.497471   9.574830  -3.083577   0.667850   4.779975  13.648522   0.000113   0.000989  -7.431554   4.527731  -3.204269  -2.449719   0.002778   0.005950 -11.201439  -1.627201   2.815247  17.148206  -0.000342   0.002195  -4.277097   7.271981   0.204247  -1.879181   0.000456   0.000041
 -2.689056   0.915003   4.573130  -1.435459 -44.851142  -3.043902  17.331268   1.149714 -10.176745  10.285116  -1.338267  -5.168668   2.528617   0.282433  -1.440867   1.355056  13.061364  12.653755   7.880284  12.732310  39.496401   0.000903  19.368449  -0.002579   9.410395   2.278328  -3.150627   0.569007 -13.166103 -12.349448   2.720473  -6.188890 -27.658412  -0.000210 -14.208948  -0.003484   4.624395  -1.526397   9.481158  -3.012901   0.541122   4.957885  13.629114   0.000108   0.000892  -7.090060   4.576512  -3.046183  -2.891387   0.002926   0.006881 -11.084044  -1.418519   3.009690  17.226364  -0.000259   0.001585  -4.529528   7.520523   0.162364  -1.737422   0.000466   0.000035
